<svg width="22" height="22" viewBox="0 0 22 22" fill="none" xmlns="http://www.w3.org/2000/svg">
<path d="M9.09514 0.258717L11.2418 1.68381C11.6506 1.95514 12.1639 2.01689 12.6251 1.8498L15.0479 0.972927C15.9376 0.650847 16.9052 1.19509 17.0924 2.12218L17.6026 4.6478C17.6996 5.12867 18.0192 5.53511 18.4634 5.74332L20.7967 6.83654C21.6532 7.23789 21.9529 8.30709 21.4298 9.09509L20.0047 11.2418C19.7334 11.6506 19.6716 12.1639 19.8387 12.6251L20.7156 15.048C21.0377 15.9377 20.4934 16.9053 19.5663 17.0925L17.0407 17.6027C16.5598 17.6996 16.1534 18.0192 15.9452 18.4635L14.852 20.7967C14.4506 21.6532 13.3814 21.9529 12.5934 21.4298L10.4467 20.0047C10.0379 19.7334 9.52464 19.6717 9.06344 19.8387L6.64055 20.7156C5.75087 21.0377 4.78326 20.4935 4.5961 19.5664L4.08589 17.0407C3.9889 16.5599 3.66935 16.1534 3.22506 15.9452L0.891806 14.852C0.0352961 14.4507 -0.264404 13.3815 0.258716 12.5934L1.68381 10.4467C1.95515 10.0379 2.01689 9.52459 1.84981 9.06339L0.972936 6.64055C0.650846 5.75086 1.19509 4.78326 2.12218 4.59609L4.64781 4.08588C5.12868 3.9889 5.53511 3.66934 5.74333 3.22505L6.83655 0.891797C7.23784 0.0352967 8.30704 -0.264403 9.09514 0.258717Z" fill="#FB4300"/>
<path d="M6.99281 11.1872L10.7499 12.8518L9.03983 13.3311L13.2595 6.62034C13.5144 6.21491 14.0494 6.0932 14.4548 6.34803C14.8345 6.5868 14.9636 7.0753 14.769 7.4688L11.2292 14.5619L11.2053 14.6101C10.9005 15.2343 10.0861 15.441 9.51953 15.0411L6.1447 12.6966C5.29503 12.0707 6.02493 10.7872 6.99281 11.1872Z" fill="#FBF5FF"/>
</svg>
