<svg width="561" height="561" viewBox="0 0 561 561" fill="none" xmlns="http://www.w3.org/2000/svg">
<path d="M250.732 13.4326C266.172 -4.47733 293.932 -4.47724 309.372 13.4326L351.433 62.2227C359.443 71.5125 371.382 76.4627 383.612 75.5527L447.853 70.793C471.443 69.043 491.062 88.6729 489.312 112.253L484.553 176.492C483.643 188.722 488.593 200.663 497.883 208.673L546.673 250.732C564.583 266.172 564.582 293.932 546.673 309.372L497.883 351.433C488.593 359.443 483.643 371.382 484.553 383.612L489.312 447.853C491.062 471.443 471.433 491.062 447.853 489.312L383.612 484.553C371.382 483.643 359.443 488.593 351.433 497.883L309.372 546.673C293.932 564.582 266.172 564.583 250.732 546.673L208.673 497.883C200.663 488.593 188.722 483.643 176.492 484.553L112.253 489.312C88.6629 491.062 69.043 471.433 70.793 447.853L75.5527 383.612C76.4627 371.382 71.5125 359.443 62.2227 351.433L13.4326 309.372C-4.47724 293.932 -4.47733 266.172 13.4326 250.732L62.2227 208.673C71.5127 200.663 76.4627 188.722 75.5527 176.492L70.793 112.253C69.043 88.6629 88.6729 69.043 112.253 70.793L176.492 75.5527C188.722 76.4627 200.663 71.5127 208.673 62.2227L250.732 13.4326ZM397.312 196.164C389.273 187.294 375.572 186.614 366.702 194.654L241.014 308.539L185.032 262.304H185.043C164.443 246.144 138.203 272.114 154.433 292.914L219.853 372.124C230.793 385.574 251.793 386.094 263.343 373.124L264.242 372.124L397.312 225.264C404.652 217.104 404.842 204.474 397.312 196.164Z" fill="#3A495A"/>
</svg>
