<svg width="561" height="561" viewBox="0 0 561 561" fill="none" xmlns="http://www.w3.org/2000/svg">
<path d="M250.732 13.4324C266.172 -4.47752 293.932 -4.47743 309.372 13.4324L351.432 62.2225C359.442 71.5123 371.382 76.4625 383.612 75.5525L447.852 70.7928C471.442 69.0428 491.062 88.6727 489.312 112.253L484.553 176.492C483.643 188.722 488.593 200.663 497.883 208.673L546.673 250.732C564.582 266.172 564.582 293.932 546.673 309.372L497.883 351.432C488.593 359.442 483.643 371.382 484.553 383.612L489.312 447.852C491.062 471.442 471.432 491.062 447.852 489.312L383.612 484.553C371.382 483.643 359.442 488.593 351.432 497.883L309.372 546.673C293.932 564.582 266.172 564.582 250.732 546.673L208.673 497.883C200.663 488.593 188.722 483.643 176.492 484.553L112.253 489.312C88.6627 491.062 69.0428 471.432 70.7928 447.852L75.5525 383.612C76.4625 371.382 71.5123 359.442 62.2225 351.432L13.4324 309.372C-4.47743 293.932 -4.47752 266.172 13.4324 250.732L62.2225 208.673C71.5125 200.663 76.4625 188.722 75.5525 176.492L70.7928 112.253C69.0428 88.6627 88.6727 69.0428 112.253 70.7928L176.492 75.5525C188.722 76.4625 200.663 71.5125 208.673 62.2225L250.732 13.4324ZM397.312 196.164C389.272 187.294 375.572 186.614 366.702 194.654L241.013 308.539L185.032 262.304L185.043 262.304C164.443 246.144 138.202 272.114 154.432 292.914L219.852 372.124C230.792 385.574 251.793 386.094 263.343 373.124L264.242 372.124L397.312 225.263C404.652 217.104 404.842 204.474 397.312 196.164Z" fill="#7799B3"/>
</svg>
