<svg width="64" height="92" viewBox="0 0 64 92" fill="none" xmlns="http://www.w3.org/2000/svg">
<path fill-rule="evenodd" clip-rule="evenodd" d="M25.3 27.6996C25.3 23.7996 28.5 22.2996 33.8 22.2996C41.4 22.2996 51 24.5996 58.6 28.6996V5.19961C50.3 1.89961 42.1 0.599609 33.8 0.599609C13.5 0.599609 0 11.1996 0 28.8996C0 56.4996 38 52.0996 38 63.9996C38 68.5996 34 70.0996 28.4 70.0996C20.1 70.0996 9.5 66.6996 1.1 62.0996V85.8996C10.4 89.8996 19.8 91.5996 28.4 91.5996C49.2 91.5996 63.5 81.2996 63.5 63.3996C63.4 33.5996 25.3 38.8996 25.3 27.6996Z" fill="white"/>
</svg>
