<svg width="25" height="30" viewBox="0 0 25 30" fill="none" xmlns="http://www.w3.org/2000/svg">
<path d="M15.4 0L24.2 8.8V27.2C24.2 28.5255 23.1254 29.6 21.8 29.6H2.59995C1.27447 29.6 0.199951 28.5255 0.199951 27.2V2.4C0.199951 1.07452 1.27447 0 2.59995 0H15.4Z" fill="#96CA8C"/>
<path opacity="0.9" d="M15.4 0L24.2 8.8L17.8 8.8C16.4745 8.8 15.4 7.72548 15.4 6.4L15.4 0Z" fill="#6C9A64"/>
<path d="M7.88427 19.0657L4.43427 22.5157C4.28424 22.6657 4.19995 22.8692 4.19995 23.0814V25.2C4.19995 25.6418 4.55812 26 4.99995 26H19.4C19.8418 26 20.2 25.6418 20.2 25.2V21.0814C20.2 20.8692 20.1157 20.6657 19.9656 20.5157L16.0156 16.5657C15.7032 16.2533 15.1967 16.2533 14.8843 16.5657L11.2656 20.1843C10.9532 20.4967 10.4467 20.4967 10.1343 20.1843L9.01564 19.0657C8.70322 18.7533 8.19668 18.7533 7.88427 19.0657Z" fill="white"/>
<circle cx="6.19995" cy="14.8" r="2" fill="#B7E4AF"/>
</svg>
