<svg width="24" height="30" viewBox="0 0 24 30" fill="none" xmlns="http://www.w3.org/2000/svg">
<path d="M15.2 0L24 8.8V27.2C24 28.5255 22.9255 29.6 21.6 29.6H2.4C1.07452 29.6 0 28.5255 0 27.2V2.4C0 1.07452 1.07452 0 2.4 0H15.2Z" fill="#CA8CAE"/>
<path d="M15.6094 11.6602C16.5895 11.4099 17.5999 11.973 17.6 12.7697V21.9027C17.6 23.134 16.6312 24.1322 15.4361 24.1322C14.1215 24.1322 13.0558 23.0855 13.0558 21.7944C13.0558 20.5033 14.1215 19.4566 15.4361 19.4566H16.3017V14.9529L8.94429 17.0259V23.3706C8.94429 24.6019 7.97546 25.6001 6.78035 25.6001C5.46573 25.6001 4.40002 24.5534 4.40002 23.2623C4.40007 21.9712 5.46576 20.9245 6.78035 20.9245H7.64593V14.5387C7.64597 14.0347 8.06475 13.5872 8.68478 13.4288L15.6094 11.6602Z" fill="white"/>
<path opacity="0.9" d="M15.2 0L24 8.8L17.6 8.8C16.2745 8.8 15.2 7.72548 15.2 6.4L15.2 0Z" fill="#9F6C88"/>
</svg>
