<svg width="24" height="30" viewBox="0 0 24 30" fill="none" xmlns="http://www.w3.org/2000/svg">
<path d="M15.2 0L24 8.8V27.2C24 28.5255 22.9255 29.6 21.6 29.6H2.4C1.07452 29.6 0 28.5255 0 27.2V2.4C0 1.07452 1.07452 0 2.4 0H15.2Z" fill="#F06C4E"/>
<path d="M15.2 0L24 8.8L17.6 8.8C16.2745 8.8 15.2 7.72548 15.2 6.4L15.2 0Z" fill="#BE2F1C"/>
<path d="M4.66584 24.8V18.9819H6.96129C7.40258 18.9819 7.77853 19.0661 8.08913 19.2347C8.39974 19.4014 8.63648 19.6334 8.79936 19.9307C8.96413 20.2262 9.04652 20.5671 9.04652 20.9535C9.04652 21.3398 8.96319 21.6807 8.79652 21.9762C8.62985 22.2716 8.38838 22.5018 8.07209 22.6665C7.75769 22.8313 7.37701 22.9137 6.93004 22.9137H5.46697V21.9279H6.73118C6.96792 21.9279 7.163 21.8872 7.31641 21.8057C7.47171 21.7224 7.58724 21.6078 7.663 21.462C7.74065 21.3143 7.77947 21.1447 7.77947 20.9535C7.77947 20.7603 7.74065 20.5917 7.663 20.4478C7.58724 20.3019 7.47171 20.1893 7.31641 20.1097C7.1611 20.0283 6.96413 19.9875 6.7255 19.9875H5.89595V24.8H4.66584ZM11.908 24.8H9.84553V18.9819H11.9251C12.5103 18.9819 13.0141 19.0983 13.4364 19.3313C13.8588 19.5624 14.1836 19.8947 14.4109 20.3285C14.64 20.7622 14.7546 21.2811 14.7546 21.8853C14.7546 22.4913 14.64 23.0122 14.4109 23.4478C14.1836 23.8834 13.8569 24.2177 13.4308 24.4506C13.0065 24.6836 12.4989 24.8 11.908 24.8ZM11.0756 23.7461H11.8569C12.2205 23.7461 12.5264 23.6817 12.7745 23.5529C13.0245 23.4222 13.212 23.2205 13.337 22.9478C13.4639 22.6732 13.5273 22.319 13.5273 21.8853C13.5273 21.4554 13.4639 21.104 13.337 20.8313C13.212 20.5586 13.0254 20.3578 12.7773 20.229C12.5292 20.1002 12.2234 20.0358 11.8597 20.0358H11.0756V23.7461ZM15.6658 24.8V18.9819H19.5181V19.9961H16.896V21.3824H19.2624V22.3966H16.896V24.8H15.6658Z" fill="white"/>
</svg>
