<svg width="25" height="30" viewBox="0 0 25 30" fill="none" xmlns="http://www.w3.org/2000/svg">
<path d="M16 0L24.8 8.8V27.2C24.8 28.5255 23.7255 29.6 22.4 29.6H3.20005C1.87456 29.6 0.800049 28.5255 0.800049 27.2V2.4C0.800049 1.07452 1.87457 0 3.20005 0H16Z" fill="#A62CDB"/>
<rect x="13.6" y="18" width="7.2" height="2.4" fill="#EEEEEE"/>
<rect x="13.6" y="22.8" width="7.2" height="2.4" fill="#DC89FF"/>
<path opacity="0.9" d="M16 0L24.8 8.8L18.4 8.8C17.0745 8.8 16 7.72548 16 6.4L16 0Z" fill="#6F1D93"/>
<path d="M6.14542 25.6001H4.49769L7.00835 18.3274H8.98988L11.497 25.6001H9.84925L8.02752 19.9893H7.9707L6.14542 25.6001ZM6.04244 22.7414H9.93448V23.9417H6.04244V22.7414Z" fill="#FDFFFB"/>
</svg>
