<svg width="25" height="30" viewBox="0 0 25 30" fill="none" xmlns="http://www.w3.org/2000/svg">
<path d="M15.4 0L24.2 8.8V27.2C24.2 28.5255 23.1254 29.6 21.8 29.6H2.59995C1.27447 29.6 0.199951 28.5255 0.199951 27.2V2.4C0.199951 1.07452 1.27447 0 2.59995 0H15.4Z" fill="#4EAD9D"/>
<path opacity="0.9" d="M15.4 0L24.2 8.8L17.8 8.8C16.4745 8.8 15.4 7.72548 15.4 6.4L15.4 0Z" fill="#2F725F"/>
<rect x="5" y="17.6001" width="2.4" height="2.4" fill="#FDFFFB"/>
<rect x="5" y="22.8" width="2.4" height="2.4" fill="#9ED6CF"/>
<rect x="17.8" y="17.6001" width="2.4" height="2.4" fill="#FDFFFB"/>
<rect x="17.8" y="22.8" width="2.4" height="2.4" fill="#9ED6CF"/>
<rect x="9" y="17.6001" width="7.2" height="2.4" fill="#FDFFFB"/>
<rect x="9" y="22.8" width="7.2" height="2.4" fill="#9ED6CF"/>
</svg>
