<svg width="25" height="30" viewBox="0 0 25 30" fill="none" xmlns="http://www.w3.org/2000/svg">
<path d="M15.4 0L24.2 8.8V27.2C24.2 28.5255 23.1254 29.6 21.8 29.6H2.59995C1.27447 29.6 0.199951 28.5255 0.199951 27.2V2.4C0.199951 1.07452 1.27447 0 2.59995 0H15.4Z" fill="#B8B8B8"/>
<path opacity="0.9" d="M15.4 0L24.2 8.8L17.8 8.8C16.4745 8.8 15.4 7.72548 15.4 6.4L15.4 0Z" fill="#9A9A9A"/>
<rect x="5" y="9.20007" width="2.4" height="2.4" fill="#FDFFFB"/>
<rect x="7.40002" y="11.6001" width="2.4" height="2.4" fill="#D8D8D8"/>
<rect x="7.40002" y="16.4" width="2.4" height="2.4" fill="#D8D8D8"/>
<rect x="7.40002" y="21.2001" width="2.4" height="2.4" fill="#D8D8D8"/>
<rect x="5" y="14" width="2.4" height="2.4" fill="#FDFFFB"/>
<rect x="5" y="18.8" width="2.4" height="2.4" fill="#FDFFFB"/>
<rect x="5" y="23.6001" width="2.4" height="2.4" fill="#FDFFFB"/>
</svg>
